<svg xmlns="http://www.w3.org/2000/svg" viewBox="2 2 20 20" role="img" aria-label="Archive" shape-rendering="geometricPrecision">
  <path d="M6.5 2.8h7.15l5.85 5.85V19.2a2 2 0 0 1-2 2h-11a2 2 0 0 1-2-2V4.8a2 2 0 0 1 2-2Z" fill="#9A7D61" opacity=".16"/>
  <path d="M6.5 2.8h7.15l5.85 5.85V19.2a2 2 0 0 1-2 2h-11a2 2 0 0 1-2-2V4.8a2 2 0 0 1 2-2Z" fill="none" stroke="#9A7D61" stroke-width="1.4" stroke-linecap="round" stroke-linejoin="round"/>
  <path d="M13.65 2.8v4.35a1.5 1.5 0 0 0 1.5 1.5h4.35Z" fill="#E4D2BF" opacity=".24"/>
  <path d="M13.65 2.8v4.35a1.5 1.5 0 0 0 1.5 1.5h4.35" fill="none" stroke="#9A7D61" stroke-width="1.4" stroke-linecap="round" stroke-linejoin="round"/>
  <path d="M7.3 7.2h9.4v10H7.3z" fill="none" stroke="#E4D2BF" stroke-width="1.45" stroke-linejoin="round"/><path d="M7.3 9.8h9.4M11 7.2v2.6M13 7.2v2.6M10.4 13.2h3.2v2h-3.2z" fill="none" stroke="#E4D2BF" stroke-width="1.2" stroke-linejoin="round"/>
</svg>
