<svg xmlns="http://www.w3.org/2000/svg" viewBox="2 2 20 20" role="img" aria-label="GitLab" shape-rendering="geometricPrecision">
  <path d="M6.5 2.8h7.15l5.85 5.85V19.2a2 2 0 0 1-2 2h-11a2 2 0 0 1-2-2V4.8a2 2 0 0 1 2-2Z" fill="#D98A3C" opacity=".16"/>
  <path d="M6.5 2.8h7.15l5.85 5.85V19.2a2 2 0 0 1-2 2h-11a2 2 0 0 1-2-2V4.8a2 2 0 0 1 2-2Z" fill="none" stroke="#D98A3C" stroke-width="1.4" stroke-linecap="round" stroke-linejoin="round"/>
  <path d="M13.65 2.8v4.35a1.5 1.5 0 0 0 1.5 1.5h4.35Z" fill="#FFD9A8" opacity=".24"/>
  <path d="M13.65 2.8v4.35a1.5 1.5 0 0 0 1.5 1.5h4.35" fill="none" stroke="#D98A3C" stroke-width="1.4" stroke-linecap="round" stroke-linejoin="round"/>
  <path d="m12 6 6 6-6 6-6-6z" fill="none" stroke="#FFD9A8" stroke-width="1.45" stroke-linejoin="round"/><path d="M10 10.1h2.6c1.1 0 2 .9 2 2v2.1M10 10.1V8.4M10 10.1v5.5" stroke="#FFD9A8" stroke-width="1.35" stroke-linecap="round"/><circle cx="10" cy="10.1" r="1" fill="#FFD9A8"/><circle cx="14.6" cy="14.2" r="1" fill="#FFD9A8"/>
</svg>
