<svg xmlns="http://www.w3.org/2000/svg" viewBox="2 2 20 20" role="img" aria-label="Image" shape-rendering="geometricPrecision">
  <path d="M6.5 2.8h7.15l5.85 5.85V19.2a2 2 0 0 1-2 2h-11a2 2 0 0 1-2-2V4.8a2 2 0 0 1 2-2Z" fill="#44A994" opacity=".16"/>
  <path d="M6.5 2.8h7.15l5.85 5.85V19.2a2 2 0 0 1-2 2h-11a2 2 0 0 1-2-2V4.8a2 2 0 0 1 2-2Z" fill="none" stroke="#44A994" stroke-width="1.4" stroke-linecap="round" stroke-linejoin="round"/>
  <path d="M13.65 2.8v4.35a1.5 1.5 0 0 0 1.5 1.5h4.35Z" fill="#BEEFE3" opacity=".24"/>
  <path d="M13.65 2.8v4.35a1.5 1.5 0 0 0 1.5 1.5h4.35" fill="none" stroke="#44A994" stroke-width="1.4" stroke-linecap="round" stroke-linejoin="round"/>
  <rect x="6.3" y="7.2" width="11.4" height="9.6" rx="1.7" fill="none" stroke="#BEEFE3" stroke-width="1.45"/><circle cx="9.8" cy="10.1" r="1.1" fill="#BEEFE3"/><path d="m7.7 15 3-3.1 2.2 2.1 1.4-1.4 2.1 2.4" fill="none" stroke="#BEEFE3" stroke-width="1.35" stroke-linecap="round" stroke-linejoin="round"/>
</svg>
