<svg xmlns="http://www.w3.org/2000/svg" viewBox="0 0 20 20" role="img" aria-label="Config Folder" shape-rendering="geometricPrecision">
  <path d="M1.25 7V5.25c0-1.1.9-2 2-2h4.4l1.7 1.9h7.4c1.1 0 2 .9 2 2v8.5c0 1.1-.9 2-2 2H3.25c-1.1 0-2-.9-2-2Z" fill="#70869B" opacity=".14"/><path d="M1.25 7V5.25c0-1.1.9-2 2-2h4.4l1.7 1.9h7.4c1.1 0 2 .9 2 2v8.5c0 1.1-.9 2-2 2H3.25c-1.1 0-2-.9-2-2Z" fill="none" stroke="#70869B" stroke-width="1.35" stroke-linecap="round" stroke-linejoin="round"/>
  <path d="M1.25 7.35h17.5v8.3c0 1.1-.9 2-2 2H3.25c-1.1 0-2-.9-2-2Z" fill="#70869B" opacity=".22"/><path d="M1.25 7.35h17.5v8.3c0 1.1-.9 2-2 2H3.25c-1.1 0-2-.9-2-2Z" fill="none" stroke="#70869B" stroke-width="1.35" stroke-linecap="round" stroke-linejoin="round"/><path d="M2.6 8.95h14.8" stroke="#CEDAE6" stroke-width="1.15" stroke-linecap="round" opacity=".58"/>
  <circle cx="10" cy="12.4" r="1.6" fill="none" stroke="#CEDAE6" stroke-width="1.2"/><path d="M10 9.4v1M10 14.4v1M7 12.4h1M12 12.4h1M7.9 10.3l.7.7M11.4 13.8l.7.7M12.1 10.3l-.7.7M8.6 13.8l-.7.7" stroke="#CEDAE6" stroke-width="1.1" stroke-linecap="round"/>
</svg>
