<svg xmlns="http://www.w3.org/2000/svg" viewBox="2 2 20 20" role="img" aria-label="Python" shape-rendering="geometricPrecision">
  <path d="M6.5 2.8h7.15l5.85 5.85V19.2a2 2 0 0 1-2 2h-11a2 2 0 0 1-2-2V4.8a2 2 0 0 1 2-2Z" fill="#487AAD" opacity=".16"/>
  <path d="M6.5 2.8h7.15l5.85 5.85V19.2a2 2 0 0 1-2 2h-11a2 2 0 0 1-2-2V4.8a2 2 0 0 1 2-2Z" fill="none" stroke="#487AAD" stroke-width="1.4" stroke-linecap="round" stroke-linejoin="round"/>
  <path d="M13.65 2.8v4.35a1.5 1.5 0 0 0 1.5 1.5h4.35Z" fill="#B59B5C" opacity=".24"/>
  <path d="M13.65 2.8v4.35a1.5 1.5 0 0 0 1.5 1.5h4.35" fill="none" stroke="#487AAD" stroke-width="1.4" stroke-linecap="round" stroke-linejoin="round"/>
  <path d="M8.2 11.7V8.6c0-1.2 1-2.1 2.2-2.1h3.4c1.1 0 2 .9 2 2v2.3h-4.5c-.8 0-1.4.6-1.4 1.4v1.1H6.6c-.8 0-1.4-.6-1.4-1.4v-.2z" fill="#B59B5C"/><path d="M15.8 12.3v3.1c0 1.2-1 2.1-2.2 2.1h-3.4c-1.1 0-2-.9-2-2v-2.3h4.5c.8 0 1.4-.6 1.4-1.4v-1.1h3.3c.8 0 1.4.6 1.4 1.4v.2z" fill="#487AAD"/>
</svg>
