<svg xmlns="http://www.w3.org/2000/svg" viewBox="2 2 20 20" role="img" aria-label="Swift" shape-rendering="geometricPrecision">
  <path d="M6.5 2.8h7.15l5.85 5.85V19.2a2 2 0 0 1-2 2h-11a2 2 0 0 1-2-2V4.8a2 2 0 0 1 2-2Z" fill="#D56C49" opacity=".16"/>
  <path d="M6.5 2.8h7.15l5.85 5.85V19.2a2 2 0 0 1-2 2h-11a2 2 0 0 1-2-2V4.8a2 2 0 0 1 2-2Z" fill="none" stroke="#D56C49" stroke-width="1.4" stroke-linecap="round" stroke-linejoin="round"/>
  <path d="M13.65 2.8v4.35a1.5 1.5 0 0 0 1.5 1.5h4.35Z" fill="#B59891" opacity=".24"/>
  <path d="M13.65 2.8v4.35a1.5 1.5 0 0 0 1.5 1.5h4.35" fill="none" stroke="#D56C49" stroke-width="1.4" stroke-linecap="round" stroke-linejoin="round"/>
  <path d="M6.8 7.2c3.7 3.9 6.4 5.8 8.3 6.3-1.4.4-3 .3-4.8-.3 1.5 1.4 3.5 2.3 6.1 2.5 1-.9 1.4-2 1.3-3.3-.1-1.6-1.2-3.5-3.5-5.5 1.2 2 .8 3.7-.7 5.1-1.4-1.2-3.6-2.8-6.7-4.8z" fill="#B59891"/>
</svg>
